<svg xmlns="http://www.w3.org/2000/svg" viewBox="0 0 240 240" width="240" height="240">
  <defs><radialGradient id="g" cx="50%" cy="40%" r="65%">
    <stop offset="0%" stop-color="#FFE47A"/><stop offset="70%" stop-color="#FFCE3A"/><stop offset="100%" stop-color="#F5B816"/>
  </radialGradient></defs>
  <g>
    <animateTransform attributeName="transform" type="translate" values="0 0;0 -5;0 0" dur="2.2s" repeatCount="indefinite"/>
    <circle cx="120" cy="120" r="108" fill="url(#g)" stroke="#E5A50A" stroke-width="4"/>
    <ellipse cx="90" cy="102" rx="11" ry="15" fill="#3B2A1A"/>
    <path d="M136 108 Q150 94 164 108" fill="none" stroke="#3B2A1A" stroke-width="10" stroke-linecap="round"/>
    <path d="M104 160 Q120 150 136 160 Q120 174 104 160 Z" fill="#FF5C7A"/>
    <path d="M120 158 L120 166" stroke="#C63F5A" stroke-width="3"/>
  </g>
  <g transform="translate(176,74) scale(0.5)">
    <path d="M0,-4 C-5,-13 -20,-10 -20,3 C-20,13 -7,19 0,25 C7,19 20,13 20,3 C20,-10 5,-13 0,-4 Z" fill="#FF4B6E"/>
    <animateTransform attributeName="transform" additive="sum" type="translate" values="0 0;10 -46" dur="2.4s" repeatCount="indefinite"/>
    <animate attributeName="opacity" values="0;1;1;0" keyTimes="0;0.2;0.7;1" dur="2.4s" repeatCount="indefinite"/>
  </g>
</svg>
