<svg xmlns="http://www.w3.org/2000/svg" viewBox="0 0 240 240" width="240" height="240">
  <defs><radialGradient id="g" cx="50%" cy="40%" r="65%">
    <stop offset="0%" stop-color="#FFE47A"/><stop offset="70%" stop-color="#FFCE3A"/><stop offset="100%" stop-color="#F5B816"/>
  </radialGradient></defs>
  <g>
    <animateTransform attributeName="transform" type="translate" values="0 0;0 -4;0 0" dur="1.2s" repeatCount="indefinite"/>
    <circle cx="120" cy="120" r="108" fill="url(#g)" stroke="#E5A50A" stroke-width="4"/>
    <g transform="translate(90,102) scale(0.7)">
      <path d="M0,-4 C-5,-13 -20,-10 -20,3 C-20,13 -7,19 0,25 C7,19 20,13 20,3 C20,-10 5,-13 0,-4 Z" fill="#FF4B6E"/>
      <animateTransform attributeName="transform" additive="sum" type="scale" values="1;1.22;1" dur="0.9s" repeatCount="indefinite"/>
    </g>
    <g transform="translate(150,102) scale(0.7)">
      <path d="M0,-4 C-5,-13 -20,-10 -20,3 C-20,13 -7,19 0,25 C7,19 20,13 20,3 C20,-10 5,-13 0,-4 Z" fill="#FF4B6E"/>
      <animateTransform attributeName="transform" additive="sum" type="scale" values="1;1.22;1" dur="0.9s" repeatCount="indefinite"/>
    </g>
    <path d="M84 150 Q120 192 156 150" fill="none" stroke="#3B2A1A" stroke-width="11" stroke-linecap="round"/>
  </g>
</svg>
