<?xml version="1.0" ?><svg viewBox="0 0 512 512" xmlns="http://www.w3.org/2000/svg"><title/><g data-name="1" id="_1"><path d="M377,450H148.1A50.17,50.17,0,0,1,98,399.89V98.11A50.17,50.17,0,0,1,148.1,48H298.2a15,15,0,0,1,10.61,4.39L422.69,166.27a15,15,0,0,1,4.39,10.61v223A50.17,50.17,0,0,1,377,450ZM148.1,78A20.14,20.14,0,0,0,128,98.11V399.89A20.14,20.14,0,0,0,148.1,420H377a20.13,20.13,0,0,0,20.11-20.11V183.09L292,78Z"/><path d="M412.08,191.88H333.31a50.17,50.17,0,0,1-50.11-50.11V63a15,15,0,0,1,30,0v78.77a20.14,20.14,0,0,0,20.11,20.11h78.77a15,15,0,1,1,0,30Z"/><path d="M207.59,360A15,15,0,0,1,197,334.39L306.88,224.5a15,15,0,1,1,21.21,21.22L218.2,355.61A15,15,0,0,1,207.59,360Z"/><path d="M317.48,360a15,15,0,0,1-10.6-4.39L197,245.72A15,15,0,0,1,218.2,224.5L328.09,334.39A15,15,0,0,1,317.48,360Z"/></g></svg>